<?xml version="1.0" encoding="UTF-8" ?>
<!DOCTYPE svg PUBLIC "-//W3C//DTD SVG 1.1//EN" "http://www.w3.org/Graphics/SVG/1.1/DTD/svg11.dtd">
<svg width="1183pt" height="1182pt" viewBox="0 0 1183 1182" version="1.1" xmlns="http://www.w3.org/2000/svg">
<g id="#bf0026ff">
<path fill="#bf0026" opacity="1.00" d=" M 385.23 173.32 C 466.02 122.01 562.29 95.66 657.93 98.48 C 703.04 99.62 747.94 107.08 791.20 119.86 C 831.72 131.94 870.98 148.74 906.89 171.17 C 934.03 188.18 959.35 208.48 980.17 232.92 C 999.43 255.50 1014.69 282.05 1021.41 311.13 C 1029.22 344.87 1024.74 380.81 1011.55 412.62 C 1001.41 437.03 986.30 459.11 968.77 478.78 C 936.28 515.05 896.30 543.67 854.98 569.01 C 826.93 586.14 797.92 601.63 768.78 616.82 C 746.84 628.35 724.58 639.37 703.56 652.55 C 689.54 661.85 675.60 672.76 668.10 688.25 C 653.18 719.38 662.30 760.16 689.45 781.64 C 699.70 790.13 712.55 794.75 725.62 796.63 C 718.09 794.15 711.13 789.98 705.90 783.97 C 697.48 774.59 691.93 763.05 687.75 751.27 C 702.55 756.15 718.41 757.04 733.89 756.17 C 792.82 751.48 851.90 748.88 910.93 745.83 C 937.57 744.58 964.21 743.11 990.85 742.07 C 994.63 743.47 996.18 747.59 997.55 751.04 C 1000.41 759.37 1001.09 768.25 1001.28 777.00 C 948.44 774.52 895.32 777.74 843.16 786.58 C 790.33 795.48 738.58 810.25 688.56 829.34 C 654.87 841.99 622.15 857.01 589.07 871.13 C 575.73 877.09 561.59 881.46 546.98 882.65 C 512.33 885.79 475.45 873.33 452.64 846.43 C 439.91 831.78 433.62 812.28 433.73 793.01 C 433.34 772.42 439.39 752.09 449.06 734.05 C 464.36 705.67 487.79 682.60 513.28 663.28 C 546.06 638.61 582.68 619.52 620.26 603.30 C 656.20 587.76 693.34 575.18 730.79 563.82 C 761.65 554.02 792.10 542.87 821.69 529.72 C 852.35 516.01 882.19 500.20 909.56 480.65 C 931.45 464.91 951.87 446.68 967.76 424.77 C 975.98 413.36 982.94 400.97 987.74 387.73 C 999.15 356.67 997.88 321.42 985.04 291.00 C 972.60 260.95 950.57 235.82 925.45 215.60 C 894.06 190.53 857.61 172.40 819.81 159.16 C 774.73 143.50 727.38 134.78 679.80 131.79 C 653.95 130.27 627.96 130.09 602.18 132.73 C 559.28 136.97 517.08 148.18 477.73 165.78 C 435.58 184.55 396.78 210.58 362.85 241.82 C 284.24 314.37 231.61 414.37 215.86 520.14 C 209.58 562.78 209.19 606.44 216.75 648.95 C 229.94 725.24 266.76 796.96 319.94 853.10 C 365.50 901.49 423.01 938.29 485.62 960.44 C 535.10 978.02 587.61 986.66 640.07 987.09 C 684.50 987.83 729.02 980.02 770.74 964.76 C 806.93 951.52 841.04 932.84 872.23 910.25 C 890.17 898.79 912.99 897.36 933.24 902.69 C 958.85 909.43 981.70 924.09 1001.43 941.44 C 945.70 992.20 879.81 1032.04 808.34 1056.24 C 719.59 1086.25 622.17 1091.94 531.10 1069.09 C 440.68 1046.71 357.74 996.72 294.22 928.78 C 242.27 873.48 203.00 806.34 180.40 733.90 C 154.91 652.45 150.80 564.37 169.12 480.98 C 183.25 415.97 211.11 354.02 250.15 300.16 C 286.56 249.80 332.68 206.48 385.23 173.32 Z" />
<path fill="#bf0026" opacity="1.00" d=" M 790.03 235.03 C 824.35 221.39 865.26 224.49 896.38 244.70 C 913.16 255.52 927.06 271.70 932.70 291.08 C 938.01 309.96 937.41 330.14 933.02 349.14 C 926.73 376.37 912.38 401.18 894.41 422.36 C 873.31 447.18 847.44 467.52 819.99 484.87 C 768.86 516.85 712.35 539.20 654.97 557.17 C 615.85 569.02 577.33 583.02 540.28 600.32 C 504.87 616.95 470.59 636.45 439.92 660.86 C 415.67 680.26 393.39 702.91 378.13 730.17 C 367.83 748.63 361.15 769.55 361.65 790.85 C 361.97 808.59 367.52 826.09 376.93 841.08 C 387.62 858.30 402.73 872.37 419.32 883.82 C 414.77 881.98 410.98 878.73 406.92 876.04 C 382.70 858.37 361.36 835.47 349.70 807.53 C 341.14 787.15 339.04 764.18 343.78 742.59 C 348.01 722.74 357.20 704.25 368.69 687.63 C 390.40 656.47 419.20 631.04 449.47 608.44 C 478.04 586.98 508.98 569.04 539.37 550.34 C 569.96 531.46 600.63 512.65 630.04 491.95 C 645.31 481.11 660.30 469.77 673.83 456.79 C 686.07 445.00 697.41 431.69 703.92 415.82 C 716.85 384.87 705.89 345.98 678.89 326.14 C 668.96 318.87 657.02 313.65 644.60 313.26 C 655.70 315.22 664.07 323.95 670.18 332.88 C 675.63 340.77 679.44 349.64 682.68 358.63 C 667.72 353.54 651.70 353.03 636.06 353.65 C 588.10 357.60 540.02 359.85 491.98 362.42 C 454.95 364.30 417.93 366.17 380.89 367.78 C 377.08 368.17 375.04 364.21 373.65 361.30 C 369.92 352.39 369.00 342.55 368.98 332.97 C 446.54 336.39 524.62 327.71 599.53 307.26 C 641.16 296.05 681.74 281.22 721.43 264.45 C 744.39 254.85 766.97 244.38 790.03 235.03 Z" />
</g>
</svg>
