<svg xmlns="http://www.w3.org/2000/svg" version="1.0" viewBox="220.7 86.14 740.28 200.39"><path d="M508 87.9c-37.4 8.1-66.8 37-76.3 75.1-2.7 10.9-2.9 33.7-.4 44.7 8.6 37.7 36 66 73.6 76 8.2 2.2 11.8 2.6 24.6 2.6 12.5.1 16.5-.3 23.8-2.2 16.4-4.2 30.3-11.2 42-21.2 1.4-1.1-1.9-6.4-6.4-10.3-8.6-7.3-20.9-8.5-33.8-3.1-8.9 3.8-21 5.8-29.6 5-10.4-.9-15-2.2-25.5-7.2-8.1-3.9-10.8-5.8-18.1-13.2-6.3-6.4-9.6-10.7-12.6-16.6-11.8-23-10.4-47.7 3.8-69 12.3-18.3 31.3-29.2 53.1-30.3 11.4-.6 19.1.7 29.7 5 14.7 5.9 28.3 3.2 36.8-7.3 4.1-4.9 3.9-5.4-3.4-10.8-8.8-6.6-20.5-12.3-31.8-15.7-12.2-3.6-36.4-4.4-49.5-1.5z"/><path d="M661.7 87.6c-41.3 9.2-72.2 41.2-78.7 81.6-2 12.5-.8 34.3 2.4 45.2 10.5 35 37.8 60.9 73.6 69.9 12.9 3.2 34.9 2.9 48.2-.6 5.3-1.4 13.4-4.3 18-6.5 9.8-4.7 22.8-13.6 22.8-15.7 0-2.3-7.9-10.4-12.5-12.7-2.5-1.3-6.7-2.3-11-2.6-6-.4-8.1 0-15 2.6-12.3 4.7-16.2 5.5-27 5.5-12.1.1-20-1.8-31.2-7.4-15.2-7.6-28.2-22.4-33.8-38.5-3.6-10.5-4.5-25.8-2.1-36.6 4.5-20.3 17.8-37.1 36.8-46.8 16.8-8.4 34.7-9.3 54.3-2.5 13.7 4.8 20.9 5 29.1 1 5.5-2.7 12.4-9.6 12.4-12.4-.1-4.3-24.9-18.2-39.5-22.2-10.6-2.9-36.6-3.6-46.8-1.3z"/><path d="M817 87.5c-33.2 7.4-59.2 28.5-72 58.4-6.5 15.1-7.5 20.4-7.5 40.6 0 15.8.3 19 2.3 26 10.5 36.2 37.9 62.7 74.2 71.8 6.7 1.6 11.6 2.1 23 2.1 16.3 0 26.1-1.9 39.8-7.6 7.7-3.2 23.2-12.9 26.6-16.7 2.3-2.5 3.6-2.7 3.6-.6 0 3 4.2 9.7 8.6 14.1 4.9 4.7 13.3 8.4 19 8.4h3.5l-.4-56.3c-.3-47.1-.7-57.3-2-62.7-5-20.4-13.7-36.1-27.6-50.1-12.5-12.5-27.7-21.3-44.6-25.9-10.4-2.9-36.5-3.7-46.5-1.5zm36.4 32.5c12.1 3.1 22.9 9.2 31.6 18 4.1 4.2 9 10.1 10.8 13.2 7.6 12.8 11.1 29.1 9.2 42.8-2.3 16.5-8 28-20 40.1-7.2 7.4-9.9 9.3-18 13.2-11.9 5.7-18 7.1-30 7.1-11.6 0-19.8-2-30.7-7.5-15.2-7.6-27.3-21.4-33.5-38.1-4-10.9-4.9-25.6-2.4-37.2 5.6-24.7 25.3-45.1 50-51.6 9.7-2.6 23.1-2.6 33 0zM221 91.5c0 10.2 9 22.5 19.5 26.4 5.3 2 7.5 2.1 45.5 2.1 22 0 40 .2 40 .5s-21.2 28-47.2 61.7c-25.9 33.6-48.7 63.6-50.5 66.7-4.6 7.7-6.3 13.9-7 25.3l-.6 9.8h151.6l-.6-4.9c-.8-6.7-4.6-13.8-10.2-19-8.4-7.8-6.9-7.5-53.6-8.1l-41.5-.5 46.3-60c25.5-33 48.1-62.8 50.4-66.2 5.3-8.1 7.9-16.6 8.6-28.1l.6-9.2H221v3.5zM406 89.7c-9.1 3.2-15.7 9.4-19.5 18.5-1.3 3.3-1.5 14.4-1.5 89.8v86h32V88h-3.2c-1.8.1-5.3.8-7.8 1.7zM949.3 268c-2.8 1.1-4.3 4-4.3 8.3 0 7.2 9.5 10.7 13.9 5.1 3.6-4.6 2.4-10.6-2.6-13.2-2.5-1.4-4-1.4-7-.2z"/></svg>